<?xml version="1.0" standalone="no"?>
<!DOCTYPE svg PUBLIC "-//W3C//DTD SVG 20010904//EN"
 "http://www.w3.org/TR/2001/REC-SVG-20010904/DTD/svg10.dtd">
<svg version="1.0" xmlns="http://www.w3.org/2000/svg"
 width="200.000000pt" height="200.000000pt" viewBox="0 0 200.000000 200.000000"
 preserveAspectRatio="xMidYMid meet">
<metadata>
Created by potrace 1.16, written by Peter Selinger 2001-2019
</metadata>
<g transform="translate(0.000000,200.000000) scale(0.100000,-0.100000)"
fill="#000000" stroke="none">
<path d="M980 1025 c-496 -496 -583 -588 -574 -602 6 -9 15 -18 20 -20 5 -2
274 262 598 586 512 512 588 592 577 605 -8 9 -19 16 -25 16 -6 0 -274 -263
-596 -585z"/>
<path d="M373 1495 c-17 -7 -36 -22 -42 -34 -7 -13 -11 -157 -11 -436 l0 -416
25 -24 c21 -22 33 -25 93 -25 54 0 72 4 85 18 10 10 17 22 17 25 0 4 -33 7
-73 7 -43 0 -78 5 -85 12 -8 8 -12 55 -12 148 l0 135 183 183 183 183 113
-121 c62 -66 118 -119 124 -117 6 2 15 11 21 20 9 14 -10 38 -119 147 -71 71
-136 130 -145 130 -8 0 -92 -78 -187 -172 l-173 -173 0 222 c0 218 0 222 22
237 20 14 86 16 519 16 468 0 497 1 512 18 10 10 17 22 17 25 0 4 -233 7 -517
7 -418 -1 -524 -3 -550 -15z"/>
<path d="M1531 1486 l-24 -26 41 0 c73 0 72 5 72 -323 l0 -292 -143 143 c-78
78 -147 142 -152 142 -5 0 -51 -41 -102 -92 l-93 -92 -35 34 c-34 33 -35 33
-55 15 -21 -19 -20 -20 162 -202 l183 -183 -366 0 -366 0 -23 -25 -23 -25 507
0 507 0 24 25 25 24 0 420 0 420 -22 26 c-13 15 -38 28 -58 31 -29 5 -39 1
-59 -20z m89 -786 c0 -38 -5 -71 -12 -78 -7 -7 -41 -12 -84 -12 l-72 0 -141
148 -140 147 77 78 77 77 147 -147 148 -148 0 -65z"/>
</g>
</svg>
