<?xml version="1.0" standalone="no"?>
<!DOCTYPE svg PUBLIC "-//W3C//DTD SVG 20010904//EN"
 "http://www.w3.org/TR/2001/REC-SVG-20010904/DTD/svg10.dtd">
<svg version="1.0" xmlns="http://www.w3.org/2000/svg"
 width="200.000000pt" height="200.000000pt" viewBox="0 0 200.000000 200.000000"
 preserveAspectRatio="xMidYMid meet">
<metadata>
Created by potrace 1.16, written by Peter Selinger 2001-2019
</metadata>
<g transform="translate(0.000000,200.000000) scale(0.100000,-0.100000)"
fill="#ffffff" stroke="none">
<path d="M740 1613 c-39 -15 -71 -49 -120 -127 l-53 -86 -166 0 c-153 0 -170
-2 -211 -22 -33 -17 -51 -35 -67 -68 -23 -44 -23 -48 -23 -480 0 -493 1 -494
76 -541 l39 -24 790 0 790 0 39 24 c75 47 76 48 76 541 0 432 0 436 -22 480
-17 33 -35 51 -68 68 -41 20 -58 22 -211 22 l-166 0 -52 85 c-83 135 -69 130
-376 132 -143 1 -267 -1 -275 -4z m509 -76 c14 -6 50 -52 81 -102 39 -60 66
-93 86 -102 19 -8 85 -12 192 -13 97 0 172 -4 184 -11 45 -24 48 -53 48 -479
0 -426 -3 -455 -48 -479 -29 -15 -1545 -15 -1574 0 -45 24 -48 53 -48 479 0
426 3 455 48 479 12 7 87 11 184 11 107 1 173 5 192 13 20 9 47 42 86 102 31
50 67 96 81 102 34 18 454 18 488 0z"/>
<path d="M923 1291 c-50 -13 -137 -58 -161 -84 l-22 -23 35 -34 c35 -34 36
-34 63 -17 67 44 96 52 187 52 100 0 128 -10 196 -72 43 -39 82 -106 94 -160
l7 -33 -56 0 c-31 0 -56 -3 -56 -7 0 -16 152 -198 165 -198 13 0 165 182 165
198 0 4 -25 7 -55 7 -52 0 -55 2 -60 28 -18 84 -32 120 -67 173 -75 113 -179
170 -317 175 -47 2 -100 -1 -118 -5z"/>
<path d="M584 977 l-82 -102 58 -3 57 -3 5 -44 c8 -65 58 -164 112 -217 25
-26 77 -62 114 -80 62 -31 73 -33 172 -33 98 0 110 2 170 32 36 17 76 41 90
52 l25 20 -38 38 c-32 33 -40 36 -55 25 -9 -7 -41 -24 -71 -39 -169 -81 -370
25 -415 219 -6 27 -5 27 50 30 l56 3 -82 103 c-45 56 -83 102 -83 102 -1 0
-39 -46 -83 -103z"/>
</g>
</svg>
